<?xml version="1.0" encoding="UTF-8"?>
<svg version="1.1" viewBox="0 0 900 900" width="1280" height="1280" xmlns="http://www.w3.org/2000/svg">
<path transform="translate(0)" d="m0 0h900v900h-900z" fill="#FCFCFC"/>
<path transform="translate(73,250)" d="m0 0h164l5 2 7 10 7 9 9 10 7 7 7 8 7 7 7 8 10 10 13 2 66 7 305 33 44 5 2 1-9 101v7l20 1 19 4 16 6 13 7 11 8 10 9 10 13 8 14 7 18 3 17v26l-4 17-6 16-7 12-9 12-12 12-10 7-14 8-16 6-12 3-8 1h-19l-17-3-18-6-13-7-11-8-10-9-9-11-8-12-282-1 1 75 11 4 8 6 6 7 5 10 1 4 6 1h122l1-8 6-10 7-7 10-5 3-1h17l10 4 8 6 7 10 3 7v3l35 1 2-10 7-10 7-6 8-4 4-1h16l9 3 9 7 6 8 4 9 1 13-4 13-7 9-9 7-9 3h-586l-1-5v-3l39-1 94-1-8-16-1-4v-12l4-11 6-9 10-7 12-4h5l-1-76-3-15-16-60-20-74-22-82-17-63-5-14-11-12-10-10-7-8-11-11-10-1-36-1-6-3-5-6-2-4v-8l4-8 6-5z" fill="#5D6480"/>
<path transform="translate(307,333)" d="m0 0h9l132 14 168 18 102 11 4 2-5 62-4 39-7 3-19 7-14 8-12 9-12 12-7 10-8 13-6 24-2 19 1 17 4 16 3 11h-279l-16-97-17-104-15-90z" fill="#FCFCFC"/>
<path transform="translate(170,332)" d="m0 0h126l3 13 27 165 17 103 1 15h-94l-3-7-18-68-6-21-14-53-15-55-11-40-10-38-3-10z" fill="#FBFBFC"/>
<path transform="translate(721,488)" d="m0 0h25l18 4 12 5 11 6 13 10 8 8 10 14 7 14 5 16 2 13v18l-3 16-5 13-6 12-7 10-9 10-11 10-16 9-17 6-19 3h-9l-21-3-15-5-15-8-13-11-7-7-8-11-8-14-5-15-3-16v-17l3-17 6-17 9-15 11-12 9-9 10-7 15-7 17-5z" fill="#FBFBFB"/>
<path transform="translate(251,637)" d="m0 0h93l2 2v73l-16 8-7 6-6 11-2 7h-37l-4-9-7-11-8-6-8-4z" fill="#FAFAFA"/>
<path transform="translate(706,531)" d="m0 0 7 6 3 3v2l4 2 10 10 1 2 5-1 7-8 14-14 5-1 10 10 7 8 8 7-2 5-23 23 2 4 10 10 2 1v2h2v2h2l7 7-1 4-13 13-6 7-5 5-4-1-7-8-10-9-6-6v-2l-5 3-21 21-1 2-4-1-25-25 1-4 21-21 3-2-1-4-8-7-7-8-8-7-1-4 25-25z" fill="#E98615"/>
<path transform="translate(643,424)" d="m0 0h12l6 4 5 5 2 6-2 27-1 8 14-5 7-3h7l2 2v6l-2 3-1 7-3 2 1 2-14 7-14 10-13 13-7 10-8 13-6 24-2 19 1 17 4 16 3 11h-279l1-3v2h252l-5-25v-32l3-15 6-18 10-21 7-10 1-67 3-7 8-7z" fill="#A9B0C7"/>
<path transform="translate(406,401)" d="m0 0h11l8 4 6 7 2 7v153l-4 5-4 2h-9l-6-5-3-14-12-94-5-38v-12l5-8 8-6z" fill="#AAB1C7"/>
<path transform="translate(533,413)" d="m0 0 10 1 9 6 6 10v12l-8 85-4 42-3 8-6 4h-7l-5-3-3-4-1-3-2-32-4-86v-24l4-7 8-7z" fill="#AAB1C7"/>
<path transform="translate(245,277)" d="m0 0 4 2 19 19 7 8 14 14v2h-124l-4-3v-2h-2l-9-11-15-15-5-4 1-2 106-1 5-3z" fill="#F7F8F9"/>
<path transform="translate(391,753)" d="m0 0h28l96 1 8 16 2 3v3h-148l2-4 4-6 5-12z" fill="#F5F5F7"/>
<path transform="translate(499,125)" d="m0 0h17l12 3 6 4 7 6 5-6 9-5 15-2h18l1 1-1 13-4 8-5 6-8 5-7 2-8 1h-32l-13-2-10-6-6-8-3-7-1-10 1-2z" fill="#5D6480"/>
<path transform="translate(684,113)" d="m0 0 4 1 6 9 3 10v8l-3 9-8 11-20 20-10 8-9 4h-14l-10-5-6-5 1-4 16-16 10-6 3-1h12l1-14 4-8 9-10 7-8z" fill="#5D6480"/>
<path transform="translate(629,506)" d="m0 0h1l1 5v41l-4 20-1 20 3 19 5 15v2h-279l1-3v2h252l-5-25v-32l3-15 6-18 10-21z" fill="#C6CAD5"/>
<path transform="translate(127,663)" d="m0 0h11l8 5 4 5 2 5v12l-6 9-5 4-7 2-10-1-9-7-4-8v-11l5-8 7-6z" fill="#5D6480"/>
<path transform="translate(409,784)" d="m0 0h38l219 1v1l-11 1h-420l-154-1v-1z" fill="#B6BCCD"/>
<path transform="translate(278,754)" d="m0 0h37l5 13 4 5v4h-56l-1-2 6-9 4-10z" fill="#F3F4F6"/>
<path transform="translate(589,754)" d="m0 0h33l9 17 2 4-4 1h-49l-2-2 6-9 3-7z" fill="#F2F3F6"/>
<path transform="translate(686,466)" d="m0 0h7l2 2v6l-2 3-1 7-3 2 1 2-14 7-11 8h-3v-11l2-24h1v6l14-5z" fill="#C7CBD6"/>
<path transform="translate(186,591)" d="m0 0 8 1 7 6 2 4v8l-4 7-7 4h-10l-6-4-3-6v-10l4-6 5-3z" fill="#5D6480"/>
<path transform="translate(130,671)" d="m0 0 7 1 6 5 1 2v9l-7 8-8 1-7-4-3-6v-8l4-5z" fill="#F7F7F9"/>
<path transform="translate(655,738)" d="m0 0h8l5 3 3 4v8l-5 6-4 2h-6l-6-4-3-5 1-8z" fill="#F3F4F6"/>
<path transform="translate(347,738)" d="m0 0h8l6 4 2 4-1 8-5 5-4 2-7-1-5-4-2-4v-6l4-6z" fill="#F3F4F6"/>
<path transform="translate(649,166)" d="m0 0h10l4 1-1 4-12 10-3 2-11 1-5-2 1-4 9-8z" fill="#F4F5F7"/>
<path transform="translate(684,126)" d="m0 0 3 1 1 8-2 9-7 9-4 5-5-1-1-11 6-10 7-7z" fill="#F2F3F6"/>
<path transform="translate(508,135)" d="m0 0 14 1 6 4 5 6v5l-17-1-7-3-6-7-1-3z" fill="#F2F3F5"/>
<path transform="translate(560,136)" d="m0 0h18l1 2-6 8-9 4h-16l-1-4 6-7z" fill="#EFF0F4"/>
<path transform="translate(229,183)" d="m0 0h9l1 1v29l-1 1h-8l-1-1z" fill="#5D6480"/>
<path transform="translate(278,206)" d="m0 0 4 2 2 2-1 4-8 9-8 7-4 3-6-5 2-4 4-4h2v-2l8-7z" fill="#5D6480"/>
<path transform="translate(278,250)" d="m0 0h30v9h-30z" fill="#5D6480"/>
<path transform="translate(236,738)" d="m0 0h4l1 2v14l8-1-1 5-6 3-7-1-5-6-1-2v-7l5-6z" fill="#EEEFF3"/>
<path transform="translate(185,599)" d="m0 0h6l2 2 1 9-4 3h-6l-3-3-1-6z" fill="#EDEEF2"/>
<path transform="translate(543,754)" d="m0 0h17l-1 5-5 2h-6l-5-3z" fill="#E1E3EA"/>
<path transform="translate(550,737)" d="m0 0 6 1 4 2 1 4h-18v-3l4-3z" fill="#E9EBEF"/>
<path transform="translate(415,299)" d="m0 0 7 1 1 3-2 5h-8v-7z" fill="#A0A6BC"/>
<path transform="translate(560,317)" d="m0 0h6l1 5-1 5-7-1-1-3z" fill="#A9AFC5"/>
<path transform="translate(605,263)" d="m0 0h4v2h2l-2 7-8-1 1-7z" fill="#9FA5BA"/>
<path transform="translate(560,289)" d="m0 0h6l1 1v7l-1 1h-6l-1-1v-7z" fill="#9FA5BA"/>
<path transform="translate(658,264)" d="m0 0h8l1 5-5 3h-5z" fill="#9BA2B8"/>
<path transform="translate(444,300)" d="m0 0 5 1 2 4v3h-10v-7z" fill="#9AA0B6"/>
<path transform="translate(632,263)" d="m0 0h5l2 4-1 4h-9v-6h3z" fill="#9FA5BB"/>
<path transform="translate(737,321)" d="m0 0 4 1 1 4h2l-2 4h-7l-1-5h2z" fill="#A7ADC1"/>
<path transform="translate(711,314)" d="m0 0 5 1 1 5-2 3-4-1-4-5z" fill="#A8AEC2"/>
<path transform="translate(704,177)" d="m0 0 6 1v8h-7l-1-1v-5z" fill="#A2A8BD"/>
<path transform="translate(464,285)" d="m0 0h6l1 2-2 6-3 1-4-3 1-5z" fill="#9096AD"/>
<path transform="translate(638,172)" d="m0 0 2 1-4 5v2l2 1v2l9-3 4-1-4 4-11 1-5-2 1-4z" fill="#B8BECE"/>
<path transform="translate(513,194)" d="m0 0h5l1 3-1 2h2l-1 4-7-1z" fill="#8F96AD"/>
<path transform="translate(578,266)" d="m0 0h4v7l-6 1-3-3 1-3z" fill="#8389A1"/>
<path transform="translate(731,178)" d="m0 0 7 1-1 7h-6l-1-5z" fill="#9AA0B6"/>
<path transform="translate(534,181)" d="m0 0h8v3l-1 4h-5l-2-2z" fill="#8990A8"/>
<path transform="translate(703,289)" d="m0 0 5 1 2 1-2 4-4 2-3-2v-5z" fill="#949AAF"/>
<path transform="translate(687,266)" d="m0 0 6 1 2 3-2 3-6 1-1-5z" fill="#8A91A9"/>
<path transform="translate(487,195)" d="m0 0 4 1v6l-7-1 1-5z" fill="#8E95AC"/>
<path transform="translate(755,306)" d="m0 0h7l-1 6-5-1z" fill="#838AA3"/>
<path transform="translate(380,212)" d="m0 0 6 1-1 4-7 1 1-5z" fill="#5F6682"/>
<path transform="translate(704,177)" d="m0 0h2v8h-4v-5z" fill="#8D93AA"/>
<path transform="translate(684,126)" d="m0 0 3 1-1 4v-2l-8 7-3 2 2-4z" fill="#C9CDDA"/>
<path transform="translate(383,238)" d="m0 0 3 1 1 6-4 1-1-1v-6z" fill="#5F6682"/>
<path transform="translate(435,251)" d="m0 0 3 1-1 3 2 1v2h-6l1-5z" fill="#5D6480"/>
</svg>
