<?xml version="1.0" encoding="UTF-8"?>
<svg version="1.1" viewBox="0 0 900 900" width="1280" height="1280" xmlns="http://www.w3.org/2000/svg">
<path transform="translate(0)" d="m0 0h900v900h-900z" fill="#FCFCFC"/>
<path transform="translate(520,480)" d="m0 0h244l15 2 12 6 7 6 6 9 5 14 1 14v233l-2 14-7 14-9 9-10 6-12 3h-245l-14-2-15-8-8-9-6-12-2-14v-245l3-13 7-11 7-7 8-5 9-3z" fill="#FCFCFC"/>
<path transform="translate(135,480)" d="m0 0h243l14 3 12 7 9 10 5 12 1 5 1 97v104l-1 56-3 10-6 9-5 6-15 9-12 2h-237l-17-1-10-4-10-7-8-10-5-11-1-6v-252l2-9 6-11 8-9 14-8z" fill="#FCFCFC"/>
<path transform="translate(519,90)" d="m0 0h250l10 2 10 5 10 9 7 10 3 9 1 5v246l-2 12-7 14-5 5-7 6-10 5-4 1-250 1-13-2-10-4-8-6-7-8-5-12-2-10v-244l2-15 6-10 8-9 14-8z" fill="#FCFCFC"/>
<path transform="translate(129,90)" d="m0 0h251l12 3 13 8 8 9 5 12 1 5 1 187-1 71-5 12-4 6-5 5-6 5-10 5-4 1-103 1h-57l-100-1-11-4-11-8-4-5-7-12-2-7v-255l3-11 7-11 10-9 12-6z" fill="#FCFCFC"/>
<path transform="translate(135,480)" d="m0 0h243l14 3 12 7 9 10 5 12 1 5 1 97v104l-1 56-3 10-6 9-5 6-15 9-12 2h-237l-17-1-10-4-10-7-8-10-5-11-1-6v-252l2-9 6-11 8-9 14-8zm-6 30-9 9-1 13v229l1 10 7 8 4 1h248l5-3 6-6 1-106v-101l-1-44-5-6-3-3-3-1z" fill="#010101"/>
<path transform="translate(520,480)" d="m0 0h244l15 2 12 6 7 6 6 9 5 14 1 14v233l-2 14-7 14-9 9-10 6-12 3h-245l-14-2-15-8-8-9-6-12-2-14v-245l3-13 7-11 7-7 8-5 9-3zm96 29-96 1-10 9-1 2v247l3 5 5 5 5 2h248l3-2v-2l4-2 3-5v-248l-3-5-7-6-7-1z" fill="#010101"/>
<path transform="translate(129,90)" d="m0 0h251l12 3 13 8 8 9 5 12 1 5 1 187-1 71-5 12-4 6-5 5-6 5-10 5-4 1-103 1h-57l-100-1-11-4-11-8-4-5-7-12-2-7v-255l3-11 7-11 10-9 12-6zm17 29-17 1-8 7-1 2-1 15v233l3 7 3 1 2 4 2 1 64 1h139l49-1 4-4v-2l4-1 1-2v-252l-7-7-3-2-15-1z" fill="#010101"/>
<path transform="translate(519,90)" d="m0 0h250l10 2 10 5 10 9 7 10 3 9 1 5v246l-2 12-7 14-5 5-7 6-10 5-4 1-250 1-13-2-10-4-8-6-7-8-5-12-2-10v-244l2-15 6-10 8-9 14-8zm42 29-41 1-8 7-3 5v245l2 6 5 2 2 4 2 1 89 1h138l23-1 8-7 2-6v-245l-2-5-5-5-3-2-24-1z" fill="#010101"/>
<path transform="translate(206,302)" d="m0 0 4 2 8 8 7 8 16 15 4 3v2l4 2 6 7v2l4 2 8 7 14 14 9 11-4-6-12-13-16-16 6-7 33-33 7-8 5 2 32 32 7 8 4 4-1 4-24 24-8 7-6 7h-115l-14-15-9-9-2-1v-2l-4-2-8-8-2-5 16-16h2l1-3 8-7z" fill="#FDFDFD"/>
<path transform="translate(251,510)" d="m0 0h65l10 10 8 7 19 19-2 6-8 7-35 35-4 2-11-12-8-8v-2l-4-2-16-16-8-7v-3l-2 1-1 3h-2l-2 4-43 43-4-4-6-7-2-1v-2l-4-2-9-9-8-7-8-8-7-8v-4l28-28 7-6h24l32 32-4-5-26-26v-1z" fill="#FDFDFD"/>
<path transform="translate(206,302)" d="m0 0 4 2 8 8 7 8 16 15 4 3v2l4 2 6 7-1 4-22 22-7 8-6 7h-21l-14-15-9-9-2-1v-2l-4-2-8-8-2-5 16-16h2l1-3 8-7z" fill="#FDFDFD"/>
<path transform="translate(292,510)" d="m0 0h24l10 10 8 7 19 19-2 6-8 7-35 35-4 2-11-12-8-8v-2l-4-2-16-16-8-7 1-6 15-14 3-1 2-4h2l2-4 9-8z" fill="#FDFDFD"/>
<path transform="translate(304,599)" d="m0 0 4 2 43 43 2 1-1 4-8 7-22 22-8 7-8 9-4-1-41-41-4-3 1-4 8-7 15-15 2-3h2l2-4h2l2-4z" fill="#FDFDFD"/>
<path transform="translate(255,351)" d="m0 0 4 2 8 7 14 14 9 11 2 5h-73l3-5 8-8 7-8z" fill="#FEFEFE"/>
<path transform="translate(318,510)" d="m0 0h61l5 2-1 7-6 5-7 8-12 12-1 2-4-1-27-27-8-7z" fill="#FDFDFD"/>
<path transform="translate(349,552)" d="m0 0v3l-11 11-6 7h-2l-2 4-7 7-8 7-5 5h-2l7 8 17 16 11 12 8 7 4 6-4-2-43-43-4 2-12 12-5 6-25 25h-2l1 5 8 7 35 35h-3l-30-30-8-7-4-4-4 1-26 26-6 7-3 3h-2l2-4 17-17 6-7h2l2-4 8-8-1-4 4 1 46-46-1-4-14-15-24-24h3l39 39 10-9z" fill="#BEBEBE"/>
<path transform="translate(303,694)" d="m0 0h2l2 4 8 7 26 26 4 5 8 7 3 4-4-2-12-11v-2h-2l-7-8-23-23-5-2-2 3h-2l-2 4-7 7-7 8-6 7-8 7-10 10 1 4 2 3-4-2h-3l-8 7-6 7-9 7-2-1 9-9 8-7 7-7-2-4-19-19-7-8-5-4-5-6-8-7-7 6-3 1-1 3-8 7-27 27v-3l32-32h2l2-4 7-6 3-3 28 28 7 8 13 13 7-6 22-22 9-11 8-8z" fill="#BEBEBE"/>
<path transform="translate(229,419)" d="m0 0h53v3l-9 10-16 17-15 15-8 7-5 4-2-1 17-16 12-11 15-16 9-10h-49l7 8 13 13h-3l-18-18-2-4z" fill="#BEBEBE"/>
<path transform="translate(219,213)" d="m0 0 4 2 19 19 7 8 1 3 4 2v2h3l-1 4-5 5-9 8-6 7h-2l-2 4-22 22v-3l15-16 28-28-2-4-15-16-7-7-7-8z" fill="#BEBEBE"/>
<path transform="translate(555,251)" d="m0 0 7 6 8 8 7 6 7 8 16 16 2 5 4 2 44 44-1 2-7-6-5-5-1-3-4-2-7-8-22-22-3-2-6-7-12-12-7-8-20-20z" fill="#BEBEBE"/>
<path transform="translate(633,627)" d="m0 0 7 6 11 11 6-2-2 5 27 27-1 2-26-26-4-1-14 15-25 25h-2l-2 4-2-1 4-5 8-7 22-22 7-8 3-4-17-17z" fill="#BEBEBE"/>
<path transform="translate(205,298)" d="m0 0 1 2h2v2l-8 7-20 20-8 7-12 12 2 5 2 3-4-2-1-3-8 7-13 12-8 8v-3l5-6 8-7 11-11h2v-3l8-7 29-29 8-7 3-3z" fill="#BEBEBE"/>
<path transform="translate(275,130)" d="m0 0h2l-2 4-17 17 2 4 12 12 8 7 22 22-1 2-25-25-2-1v-2l-4-2-34-34 1-2 17 17 4-1 16-17z" fill="#BEBEBE"/>
<path transform="translate(208,302)" d="m0 0 4 2 7 7 7 8 13 12 8 7 8 9 6-2-2 5 24 24 8 10-1 2-9-10-7-8-13-13-6-4-7-9-3-2v-2l-4-2-9-9-8-7-16-17z" fill="#BCBCBC"/>
<path transform="translate(352,251)" d="m0 0v3l-45 45v2l16 14 7 8 5 5-1 2-25-25-5-2-6 5 2-4 11-12 22-22 1-2h2v-2l8-7z" fill="#BCBCBC"/>
<path transform="translate(382,619)" d="m0 0v3l-5 6h-2l-2 4-16 15-11 9-25 25-8 7-4 4-2-1 13-13 8-7 22-22 2-1 2-3 4-2z" fill="#BEBEBE"/>
<path transform="translate(203,203)" d="m0 0v3l-6 7-8 7-13 13h-2l-1 3-8 7-6 7-4-1 5-4 28-28 8-7z" fill="#BEBEBE"/>
<path transform="translate(709,590)" d="m0 0v3l-4 4 2 4 43 43h-3l-48-48v-2h2v2l6-4z" fill="#BEBEBE"/>
<path transform="translate(601,597)" d="m0 0 3 1-35 35-8 7-4 3 2-4 27-27 8-7z" fill="#BEBEBE"/>
<path transform="translate(163,554)" d="m0 0 3 1 7 8 7 7 8 7 7 6v2l4 2 6 7 2 2 2 1-4 2-4-6-14-14-8-7-16-16z" fill="#BEBEBE"/>
<path transform="translate(352,152)" d="m0 0v3l-9 10-13 13-7 8-5 4-10 10-2-1 39-39z" fill="#BEBEBE"/>
<path transform="translate(596,305)" d="m0 0v3l-10 10-7 8-14 14-7 6-2-1 13-13 5-4 7-8z" fill="#BEBEBE"/>
<path transform="translate(302,203)" d="m0 0 2 1-45 45h-2l2-4 10-9z" fill="#BEBEBE"/>
<path transform="translate(600,695)" d="m0 0 5 5-5-1-2 4-15 15-7 8-14 14-2-1 17-17 1-2h2l2-4 16-16z" fill="#BEBEBE"/>
<path transform="translate(203,599)" d="m0 0h2l-2 4-21 21-7 8-12 11-2 1 2-4 8-8h2v-2l28-28z" fill="#BEBEBE"/>
<path transform="translate(555,550)" d="m0 0 4 2 35 35 7 8-1 2-9-9v-2h-2l-7-8-27-27z" fill="#BEBEBE"/>
<path transform="translate(316,510)" d="m0 0 4 2 15 14 19 19 3 2 1 4-5-1-2 1 1-5-24-24-8-7z" fill="#BEBEBE"/>
<path transform="translate(514,210)" d="m0 0 4 2 8 8 7 8 14 14 5 4 3 3v2l-4-2-34-34z" fill="#BEBEBE"/>
<path transform="translate(355,346)" d="m0 0v3 2l-8 7-22 22-8 7-2 3-2-1 7-8 16-15 15-15 1-3z" fill="#BEBEBE"/>
<path transform="translate(648,253)" d="m0 0v3l-9 10-30 30v-3l26-26 7-8z" fill="#BEBEBE"/>
<path transform="translate(512,605)" d="m0 0 4 2 3 2v2l4 2 12 13 11 12 5 6-1 2-6-6v-2h-2l-9-11-9-9v-2l-4-2-8-8z" fill="#BEBEBE"/>
<path transform="translate(191,512)" d="m0 0 2 1-15 14-19 19 4 8-7-5v-3l32-32z" fill="#BEBEBE"/>
<path transform="translate(552,545)" d="m0 0 3 1-7 8-19 19-7 8-7 7-2-1 11-11 7-8 21-21z" fill="#BEBEBE"/>
<path transform="translate(649,351)" d="m0 0v3l-8 10-16 16-8 6-2-1 15-14 15-15z" fill="#BEBEBE"/>
<path transform="translate(253,351)" d="m0 0 2 1-23 23-7 8-6 7-2-1 8-10z" fill="#BEBEBE"/>
<path transform="translate(452,347)" d="m0 0 4 1 3 5 9 9-1 2-12-12-2-1-2 4-12 11-7 6 2-4 14-14h2l2-5z" fill="#B7B7B7"/>
<path transform="translate(551,647)" d="m0 0h2v3l-4 4h-2l-1 3-8 7-21 21-2-1 7-8 8-7 13-13h2l2-4z" fill="#BEBEBE"/>
<path transform="translate(168,261)" d="m0 0 4 2 24 24 5 4 4 5v2h-2l-7-8-28-28z" fill="#BEBEBE"/>
<path transform="translate(296,308)" d="m0 0h2l-2 4-28 28-6 4 2-4 13-12 12-12z" fill="#BEBEBE"/>
<path transform="translate(595,208)" d="m0 0 2 1-10 10-7 8-8 8-8 7-4 2 6-7 7-7 8-7 2-3h2l2-4z" fill="#BEBEBE"/>
<path transform="translate(257,350)" d="m0 0 4 2 22 22 8 10-1 2-9-10-7-8-13-13-4-3z" fill="#BEBEBE"/>
<path transform="translate(219,609)" d="m0 0 3 1 7 8 8 8 7 8 8 8v2h-2l-7-8-10-10-7-8-7-7z" fill="#BEBEBE"/>
<path transform="translate(154,251)" d="m0 0 2 1-11 12-5 5h-2l-2 4h-2l-2 4-3 1 2-4 17-17z" fill="#BEBEBE"/>
<path transform="translate(694,704)" d="m0 0 2 1-9 9-5 6-8 7-9 9-2-1z" fill="#BEBEBE"/>
<path transform="translate(682,219)" d="m0 0 2 1-15 16-10 9-3 3-2-1z" fill="#BEBEBE"/>
<path transform="translate(652,746)" d="m0 0v3l-16 16-10 8-2-1 14-13 8-7z" fill="#BEBEBE"/>
<path transform="translate(357,252)" d="m0 0 4 2 15 15 9 11-1 2-9-10v-2h-2l-7-8-9-8z" fill="#BEBEBE"/>
<path transform="translate(750,448)" d="m0 0 3 1-4 4h-2l-2 4-13 13-5 3-2-1 14-12 8-9z" fill="#BEBEBE"/>
<path transform="translate(630,229)" d="m0 0 4 2 17 17h3v3l-5 2v-4l-8-7-7-8z" fill="#BEBEBE"/>
<path transform="translate(454,546)" d="m0 0h2v3h-3l-2 4-20 20-3 1v-2l8-7 14-14z" fill="#B4B4B4"/>
<path transform="translate(679,618)" d="m0 0 2 1-4 5-16 16-2-1 7-8z" fill="#BEBEBE"/>
<path transform="translate(651,546)" d="m0 0 3 1-5 5-11 12-8 8v-3l10-10 7-8z" fill="#BEBEBE"/>
<path transform="translate(585,515)" d="m0 0 2 1-16 16-8 7-4 2 6-7 16-15z" fill="#BEBEBE"/>
<path transform="translate(352,446)" d="m0 0 4 1-2 4-11 12-9 9-2-1 16-16 4-5z" fill="#BEBEBE"/>
<path transform="translate(546,357)" d="m0 0v3l-10 9-9 8-4 3-2-1 10-9 8-7 3-3h2v-2z" fill="#BEBEBE"/>
<path transform="translate(129,224)" d="m0 0 5 2 17 16 3 3-1 2-10-10-8-7-6-5z" fill="#BEBEBE"/>
<path transform="translate(148,554)" d="m0 0 2 1-19 19-4 2 2-4 5-5 10-9 4-2z" fill="#BEBEBE"/>
<path transform="translate(572,429)" d="m0 0v3l-15 15v4h-5l1-4 8-7z" fill="#BEBEBE"/>
<path transform="translate(150,752)" d="m0 0 2 1-11 11-9 7-2-1 13-12z" fill="#BEBEBE"/>
<path transform="translate(374,428)" d="m0 0 2 1-12 12h-2l-2 4-3 1 2-4 8-8z" fill="#BEBEBE"/>
<path transform="translate(130,519)" d="m0 0 5 5 14 15h-3l-11-11-5-7z" fill="#BEBEBE"/>
<path transform="translate(649,451)" d="m0 0h2l-2 4-8 7-9 9-2-1z" fill="#BEBEBE"/>
<path transform="translate(536,728)" d="m0 0 7 6 10 9 2 4h-2l-5-6-8-7-4-4z" fill="#BEBEBE"/>
<path transform="translate(147,656)" d="m0 0 2 1-12 11-7 6-2-1 8-8z" fill="#BEBEBE"/>
<path transform="translate(274,528)" d="m0 0 2 1-15 15-3 1 2-4 12-11z" fill="#BEBEBE"/>
<path transform="translate(522,516)" d="m0 0 7 6 4 5 4 4h-3l-9-9-3-4z" fill="#BEBEBE"/>
<path transform="translate(265,457)" d="m0 0 6 4 5 5 4 6-4-2-11-11z" fill="#BEBEBE"/>
<path transform="translate(621,578)" d="m0 0h2l-2 4h-2l-2 4-8 7-2 1 2-4 9-9z" fill="#BEBEBE"/>
<path transform="translate(478,76)" d="m0 0 6 4 11 11h-3l-8-8-6-5z" fill="#B8B8B8"/>
<path transform="translate(378,720)" d="m0 0v3l-9 10-5 3 2-4h2l2-4z" fill="#BEBEBE"/>
<path transform="translate(545,456)" d="m0 0 2 1-6 7-7 6-2-1z" fill="#BEBEBE"/>
<path transform="translate(425,320)" d="m0 0 4 2 5 4 7 8-1 2-8-8v-2l-4-2z" fill="#BEBEBE"/>
<path transform="translate(374,131)" d="m0 0v3l-12 11-3 2 2-4 11-11z" fill="#B8B8B8"/>
<path transform="translate(709,291)" d="m0 0 2 1-6 6 1 5-7-1 2-4z" fill="#BEBEBE"/>
<path transform="translate(439,660)" d="m0 0 2 1-7 8-5 2 5-6h2l2-4z" fill="#BEBEBE"/>
</svg>
